<?xml version="1.0" encoding="utf-8"?>
<!-- Generator: Adobe Illustrator 26.0.3, SVG Export Plug-In . SVG Version: 6.00 Build 0)  -->
<svg version="1.1" id="Capa_1" xmlns="http://www.w3.org/2000/svg" xmlns:xlink="http://www.w3.org/1999/xlink" x="0px" y="0px"
	 viewBox="0 0 492.8 492" style="enable-background:new 0 0 492.8 492;" xml:space="preserve">
<style type="text/css">
	.st0{display:none;fill:#FEFEFE;}
	.st1{fill:#020202;}
	.st2{fill:#030303;}
	.st3{fill:#040404;}
	.st4{fill:#313131;}
	.st5{fill:#8A8A8A;}
	.st6{fill:#C9C9C9;}
	.st7{fill:#550002;}
	.st8{fill:#E7E7E7;}
	.st9{fill:#F6F6F6;}
	.st10{fill:#E2E2E2;}
	.st11{enable-background:new    ;}
	.st12{fill:#FFE137;}
	.st13{fill:#FFE15F;}
	.st14{fill:#FFE15F;stroke:#02567F;stroke-miterlimit:10;}
	.st15{fill:none;}
</style>
<g id="Capa_1-2">
	<path class="st0" d="M246.3,491.9c-81,0-161.9,0-242.9,0.1c-2.9,0-3.4-0.8-3.4-3.5C0.1,326.8,0.1,165.1,0,3.4C0,0.4,0.8,0,3.5,0
		c162,0.1,323.9,0.1,485.9,0c2.9,0,3.4,0.8,3.4,3.5c-0.1,161.7-0.1,323.4,0,485.1c0,2.9-0.8,3.4-3.5,3.4
		C408.3,491.9,327.3,491.9,246.3,491.9z"/>
	<path d="M314.2,45.7c2.5,1.8,5.1,3.6,7.5,5.5c4.7,3.6,5.8,7.4,3.5,13.1c-2.5,5.9-4.5,11.8-4.3,18.3c0.1,4.4,2.1,7.2,6.1,7.8
		c3.7,0.6,5.3-2.3,6.5-5c1.3-3,2.2-6.1,2.7-9.4c3,6.9,1,15.7-5.7,25.4c5.4,4,5.9,3.9,8.6-2.2c0.6-1.5,1-3.1,1.6-4.5
		c0.3-0.7,0.4-2,1.6-1.7c1,0.2,1.3,1.1,1.3,2c-0.1,3.5,0.1,7-0.5,10.4c-0.4,2.1-0.9,4.2,1.5,6s4,0.4,5.9-0.3c2-0.9,4.1-1.7,6.3-2.3
		c8.6-2,11.8-8.4,13.1-16.2c0.5-3.1,0.5-6.2,0.8-9.3c0.1-1.3,0.1-3.1,1.9-3.1c2.1,0,1.4,1.9,1.4,3.1c0,11.1,0,22.1,0,33.4
		c8.3-2.3,12.8-7.5,15.5-14.6c3-8.4,9.2-15.3,17.1-19.3c0.6-0.4,1.3-0.7,2-0.9c0.8-0.2,1.8-0.7,2.5,0.1c0.6,0.8,0.6,2-0.1,2.8
		c-0.7,1.1-1.5,2-2.4,2.8c-4.9,3.8-8.1,9.3-8.9,15.4c-1.4,9.1-6.2,16.7-12.7,23.1c-3.7,3.9-7.8,7.3-12.2,10.4
		c-1.3,0.9-1.6,1.4-0.5,2.8c3.1,3.9,4.3,4.2,8.8,2c4.2-2.1,7.5-5.3,11-8.4c1.2-1.1,2.4-2.2,3.7-3.1c0.8-0.6,1.7-1.4,2.7-0.6
		c0.8,0.6,0.6,1.6,0.4,2.4c-0.4,1.7-0.5,3.6-1.4,4.9c-5,6.8-5.3,15-7.5,23.4c6-2.5,11.8-5.7,17.1-9.4c5.5-3.6,9.5-8.6,13.2-15
		c2.9,9.9,1.5,18.6-0.5,28.4c13.1-11.1,27.6-14.9,43.8-12.1c-1.5,1.2-3.2,2.6-4.8,4c-4.2,3.6-8,7.5-11.4,11.9
		c-7.7,10-17.3,18.5-28.1,25c2.6,1.8,8,2.5,12.9,2.1c4.3-0.4,8.4-3,13.4-1.6c-11,7.6-19.2,17.9-30.9,23.6c0.7,1.4,1.9,1.2,2.7,1.7
		c2.5,1.7,5.2-3.3,5.9-1c1,3.4,3.4,2.7,5.3,3.4c3,1,6.1-0.5,10.3-0.4c-3.3,3.6-7.1,6.8-11.3,9.5c-4,2.5-8.8,3.3-13.5,5.1
		c5.2,1.8,10,4,15,5.1c7,1.6,12.2-2.3,16.9-6.7c2-1.9,3.8-4,5.7-6c0.9-0.9,2.1-1.9,3.2-0.9c1.3,1.2-0.1,2.2-0.8,3.1
		c-7,8.6-14,17.2-21.1,26c6.4,2.6,12.5,2.8,18.5-0.6c7.5-4.2,15.5-6.7,24.3-5.6c2.1,0.2,4.2,0.7,6.1,1.4c0.7,0.3,1.6,0.7,1.6,1.4
		c0,0.9-0.7,1.5-1.6,1.9c-1.1,0.5-2.4,0.8-3.6,0.8c-6.5-0.2-12.9,2.2-17.7,6.6c-8.1,7.2-18.2,9.3-28.7,9.7
		c-4.6,0.2-9.2,0.5-13.8-0.4c-0.7-0.1-1.5-0.1-2.2,0.1c-0.9,0.2-2.2,0.2-2.5,1.4s0.8,1.7,1.5,2.4c5.4,5.8,12.4,6.3,19.6,6
		c2.6-0.1,5.2-0.3,7.9-0.4c1,0,2.1,0.1,2.5,1.2c0.2,0.9-0.6,1.6-1.2,2.2c-3.7,3.5-8.5,5.4-13.5,5.5c-7.1,0.5-14.2,0.2-21.3-0.8
		c-2.3-0.4-3.3,0.4-3.9,2.6c-1.9,6.7-2,6.7,4.2,10.4c3.2,2,6.6,3.5,10.5,3.5c1.5,0,3.6,0.1,3.9,1.4c0.3,1.6-1.9,1.9-3.2,2.4
		c-6,2.3-12,1.1-17.9-0.5c-1.9-0.5-3.2-0.5-4,1.6c-3.7,8.8-8.3,17.3-13.7,25.1c-0.8,1.2-1.6,2.2-0.7,4c3.4,7.1,5,14.9,4.7,22.8
		c0.4,0.8-0.1,0.9-0.8,0.9c-2.2-5.1-4.5-10.2-8.7-14.1c-0.9-0.9-1.9-2.4-3.4-1.2s0,2.2,0.4,3.2c1.6,4.3,3.5,8.5,3.5,14
		c-3-3.2-5.5-6-8.5-8.1c-1.4-0.9-2.3-1.4-3.7,0.2s-1.6,2.6-0.3,4.2c1.5,1.7,3.1,3.2,5,4.4c4.9,3.5,5.6,5.6,3.8,11.4
		c-2,6.6-0.8,13.4,3.1,17.4c-2.7,0.5-5.5,0.5-8.2,0.1c2.2,2.6,4.8,3.8,7.3,5.2c-0.2,1.8-1.4,0.8-2.2,0.8c-7.2-0.5-14.1-3.4-19.6-8.2
		c-1.7-1.4-3-3.4-3.6-5.6c-0.8-2.5-1.8-4.9-3.1-7.2c-1.4-2.8-2.9-3.5-5.4-1c-1.4,1.4-1.4,2.1-0.4,3.7c5,7.7,7.2,16.5,8.8,25.4
		c0.1,1,0.1,2.1,0,3.1c-1.9-2-3.2-3.4-4.5-4.7c-5.4-5.4-10.8-10.8-16.1-16.2c-1.2-1.3-2.2-1.5-3.8-0.5c-2.6,1.7-5.4,3-8.5,4.8
		c2.6,0.6,4.9,1,7.1,1.6c5.4,1.4,10.1,4.1,13.4,8.8c2.6,3.6,4.9,7.5,6.7,11.6c4.3,9.7,10.9,18.3,19.2,25c0.5,0.5,1.1,0.9,2.1,1.8
		c-3.3,0-6.5-0.9-9.3-2.5c-8.9-4.3-16.7-10.6-22.9-18.3c-1.3-1.5-2.3-3.2-3-5.1c-2.2-7.8-7.3-13.7-12.6-19.5
		c-1.8-1.9-3.2-2.6-5.5-1.1c-1.8,1-3.6,1.9-5.5,2.6c15,6.6,21.3,17.5,18.5,33.6c-1.7-2.2-3-4.2-4.6-6.1
		c-5.9-6.8-13.6-11.8-22.2-14.4c-3-0.9-6.2-1.5-8.7-3.1c-4.5-2.9-8.8-1.4-13.2-0.5c-2,0.4-2,1.9-1.9,3.5c0.2,2.4-0.4,5.1,3,6
		c7.3,1.9,12.1,6.6,14.5,13.6c0.5,1,0.5,2.1,0.1,3.1c-3.7-3.6-8.3-4.6-13.2-5.5c-5.2-1-9.8-3.4-12.4-8.5c-1.1-2.3-2.7-4.4-4.3-6.9
		c-1.6,5-3.6,10-5.8,14.7c-3.6,7.6,0,13.7,4.5,19.5c1.8,2.2,3.9,4.2,5.9,6.3c0.9,0.9,1.8,2.2,0.7,3.3c-1.2,1.3-2.2-0.2-3.1-1
		l-24.8-22.7c-2.4,5.9-3.7,11.5-1,17.5c3,6.6,5.8,13.2,5.2,20.7c-0.2,3.3-0.8,6.6-1.9,9.8c-0.4,1.1-0.7,2.8-2.3,2.4
		c-1.3-0.3-1.8-1.7-1.8-3c-0.1-1.9-0.1-3.7,0-5.6c0.2-4.4-1.1-8.7-3.9-12.2c-9.4-11.5-10.4-24.9-9.3-38.8c0.2-2.7,0.8-5.4,1.1-8.1
		c0.1-1.1,0-2.5-1.1-3s-2,0.6-2.9,1.3c-5.9,4.6-6.8,11.3-7.1,18.1c-0.2,3,0,6-0.2,9c0,0.9-0.4,1.7-1.1,2.2c-0.9,0.5-1.5-0.6-2.1-1.2
		c-3.4-3.6-4.7-8.1-5-12.9c-0.3-5.9,0.2-11.7,1.4-17.5c0.5-2.5,0.2-4.4-3.1-4.3c-1.4,0-2.8-0.3-4-0.9c-4.1-2.3-5.8,0.3-7.4,3.4
		s-1.7,6.5-2.7,9.6c-0.3,0.5-0.6,1.1-1,1.5c-3.4-4.6-3-9.4-2.5-14.3c0.1-1.6,2.1-3.8-1-4.5c-2.6-0.6-5.4-4.1-8,0.6
		c-2.4,4.4-5.9,8-9.6,11.4c-7.4,7-15,13.9-20.5,23c-3.5-16.4-1-31.1,9.7-45c-9.7,2.7-18.5,4.4-28.5,2.4c6.2-4.3,11.2-8.5,14.5-15.2
		c-5.4,3.2-11.4,5.6-17.5,7c2.8-3.6,5.9-6.4,7.7-10.1c-0.4-0.2-0.6-0.4-0.8-0.4c-12.3,5-20.4,18.5-19.2,31.6
		c0.5,5.3,0.6,10.7,0.3,16.1c-0.1,4.3-2.1,8.3-5.4,10.9c-2.5-18-11.6-34.1-11-52.8c-6.3,5.9-11.3,12.6-16.3,19.8
		c-1.9-16.7,3.2-30.9,12.3-44.2c-6,1.8-11.6,4-18,5.1c6.5-8,12.7-15.5,18.8-23c4.5-5.5,3.9-14.4-1.1-19.3c-1.3-1.2-1.7,0-2.4,0.5
		c-2.7,2.2-5.8,3.6-9.2,4.2l3.2-5.1c-13.8,4-28,2.7-42,8c4.3-8.9,7.8-16.8,12-24.4c4.6-8.4,12.7-12.9,21.5-15.7
		c5.6-1.8,2.2-4.9,2-7.5c-0.2-3.2-2.7-2.5-4.7-2.2c-3.3,0.5-6.5,1.7-9.3,3.6c-0.9,0.6-1.9,1.2-2.7,0.2s0-1.9,0.8-2.6
		c3.5-3.7,7.4-7.1,11.5-10.2c0.9-0.6,2.2-1,2.1-2.4s-1.5-1.4-2.6-1.8c-3.6-1.3-7.4-2.3-10.7-4.2c-8.5-4.8-15.5-2-22.2,3.4
		c-2.1,1.7-4,3.8-6,5.6c-1,0.9-2.4,2.1-3.5,0.8s0.3-2.2,1.2-3.1c7.5-8.2,15-16.4,22.7-24.7c-6.2-2.7-12.1-3.6-18.4-0.6
		s-12.8,5.5-20.1,4.8c-3.5-0.2-6.9-0.9-10.2-2.1c-0.9-0.4-2.1-0.7-2-1.9c0.1-1.2,1.4-1.8,2.4-2c2.1-0.2,4.2-0.2,6.4-0.1
		c4.3,0.2,8.5-1.1,11.9-3.7c11.8-9.6,25.6-10.7,39.9-9.3c2.4,0.2,4.7,0.7,7,0.9c1.2,0.1,2.7,0.3,3.2-1.2c0.4-1.2-0.7-1.9-1.4-2.8
		c-4.6-5.8-11.1-6.5-17.8-7c-3.1-0.2-6.2-0.1-9.4-0.2c-0.8,0-1.8-0.2-2.1-1.2c-0.2-0.9,0.6-1.3,1.1-1.8c3.5-3.4,7.9-4.7,12.5-5
		c5.7-0.4,11.5,0,17.1,1.2c2.3,0.5,2.6-0.4,3.1-2.3s0.4-3-2-2.8c0.5-1.2,1.7-1.3,2.4-2c2.6-2.5,2.1-5.9-1.1-7.4
		c-2.5-1-5.2-1.8-7.9-2.1c-0.9-0.2-2.4-0.1-2.5-1.3c-0.1-1.4,1.5-1.5,2.4-1.9c3.7-1.2,7.6-1.5,11.4-0.7c0.8,0.1,1.8,0.8,2.2-0.5
		c0.5-1.5-1-1.6-1.8-1.8c-6.3-2.1-12.2-0.7-18.1,1.9c-4.8,2.1-9.3,4.6-14.4,6.1c-9.3,2.6-16.3-1.3-23.3-8.5c6.6,1.2,10.8-1.9,15-5
		c5.6-4.2,11.2-8.3,16.4-13c4.8-4.3,10.9-4.4,16.8-4.9c1.6-0.1,3.2,0,5,0c-5.6-8.9-20-15.1-29.8-13.1c-4.8,1-9.6,0.9-14.6-1.5
		c6.9-1.6,12.6-5,18.4-8.2c6.3-3.4,12.6-4.4,19.6-1.7c8.1,3.1,16.5,5.4,24.7,8c5.9,1.9,7.7,1.2,11.4-3.7c1.1-1.4,1.3-2.3-0.5-3
		c-2.3-1-4.2-2.8-5.3-5.1c-0.9-1.8-2.6-2.2-4.1-3c-5.7-2.7-10.6-6.6-14.4-11.6c4.7,1.1,8.6,2,12.5,3c1.7,0.4,2.6,0.3,2.7-2
		c0.1-3.2-0.1-6.4,1.5-9.8c0.7,3.2,1.2,6.1,2,8.9c1.4,4.7,4,6.2,8.7,5.2c4-1,7.7-2.8,11-5.2c1.5-1,1.2-1.9,0.3-3
		c-2.2-2.8-5.1-4.8-8.1-6.5c-2.6-1.5-5.3-2.8-7.7-4.5c-6.1-4.3-7.9-9.5-5.9-16.7c1.9,2.1,2.9,4.7,4.9,6.4c3.6,3.3,6.9,3.6,10.3,0.7
		c4.2-3.4,4.7-6.6,1.7-11c-2-2.9-4.5-5.3-7.4-7.3c-6.1-4.3-7.3-10-5.4-16.8c0.2-0.8,0.3-1.7,0.5-2.5c0.9-0.5,1.1,0.3,1.4,0.8
		c2.7,3.5,6.6,4.6,10.7,5.1c1.9,0.2,3.7,0.2,5.6,0c5.6-0.2,7.6,0.7,9.8,6c2.5,6.1,7,9.4,13.2,10.8c2.6,0.6,4-0.2,5.1-2.9
		c2.4-6.1,1.1-11.2-3.4-15.6c-3.1-3.2-6.7-5.9-10.7-7.9c4.9-0.3,8.6,1.4,12.3,2.5c3.4,1.2,6.6,2.8,9.6,4.8c6.6,3.9,9.7,9.7,10,17.2
		c0.1,2.7,0.4,5.5,0.8,8.2c0.3,2.3,1,3.7,3.9,2.3c3.7-1.8,7.5-3.2,11.3-4.7c1.6-0.6,2-1.2,1.3-3c-1.5-4.1-3.9-7.7-6.1-11.4
		c1.2-0.9,2,0,2.8,0.5c2.2,1.6,5,2.8,6.6,4.8c5,6.2,10.8,4.9,17,2.8c1.7-0.6,1.7-1.1,1.4-2.5c-0.7-2.8-1.9-5.4-3.5-7.7
		c-0.6-1-2.1-2.1-0.7-3.2c1.1-0.9,2.4,0.2,3.3,1.1c2.7,2.6,5.4,5.2,8.1,7.8c1.3,1.2,2,3.1,4.5,2.5s1.9-2.6,2.5-4
		c1-2.7,1.7-5.5,2.9-8c3.8-8.2,1-15-4.5-21.1c-1.8-2-4-3.8-5.9-5.8c-1-1-3.2-2.1-1.6-3.8c1.4-1.5,2.6,0.5,3.7,1.3
		c8.4,6.8,16.8,13.6,25.5,20.6c2.2-6,2.9-11.7-0.1-17.5c-2.7-5.2-5.5-10.3-6.2-16.2c-0.7-4.9-0.3-10,1.2-14.7c0.3-0.9,0.6-2.1,1.8-2
		c1,0.2,1.8,1.1,1.9,2.1c0.4,2.2,0.7,4.4,0.8,6.7c-0.1,4,1.3,8,4,11c10.9,11.5,12.6,25.7,12,40.6c-0.1,2.5-0.2,5-0.2,7.5
		c-0.1,0.9,0.4,1.8,1.2,2.1c0.8,0.3,1.4-0.4,1.9-0.9c4.2-3.9,6.6-8.6,6.6-14.5c0-4.6-0.1-9.2-0.1-13.8c0-0.7-0.2-1.6,0.6-2
		s1.6,0.2,2.3,0.8c4.7,4.4,5.7,10.3,6.1,16.3c0.4,4.1,0.3,8.2-0.5,12.3c-0.8,3.6,0.2,5.7,4.1,5.7c0.4,0,0.7,0.1,1.1,0.1
		c2.2,0.3,4.7,2.6,6.6,0.8c2.2-2,3.1-5,3.7-8c0.3-1.6,0.5-3.2,0.7-4.8c0.1-0.9,0-2,1-2.2c1.3-0.3,1.6,1.1,2,1.9
		c1.5,3.3,2,7,1.6,10.6c-0.2,2.8-0.7,5.7,3.3,6.1c2.5,0.2,5.6-3.2,5.7-6.3c0.1-3.1,0-6.2-0.3-9.3c-0.3-1.6,0.2-3.2,1.4-4.3
		c2.7-2.8,5.1-5.8,7.9-8.5c2-2,2-3.9,0.3-5.9s-3.6-4.1-5.4-6.2C313.5,45.8,313.5,45.4,314.2,45.7z"/>
	<path d="M92.8,324.7c1.3,13.2-3.3,22.8-14,29.4c-8.8,5.5-17.5,11-24.2,19.1c-2.3,2.7-4.4,5.6-6.4,8.6c-0.8-3.8,0.3-7,1.5-10
		c3.1-8.3,7.8-15.9,13.7-22.5c1.7-1.8,3.5-3.8,5.6-4.9C78.4,340,85.7,332.9,92.8,324.7z"/>
	<path d="M326.8,446c-5-5.1-11-8.5-17.3-11.5c-4.2-2-7.2-5.7-10.4-9s-5.9-6.6-8.9-9.9c1.5-1.2,1.9,0,2.5,0.4c4.5,3.1,9.8,5,15.2,5.5
		c2.2,0.1,4.4,0.9,6.2,2.3C320.9,429.4,325.4,437.3,326.8,446z"/>
	<path class="st1" d="M390.3,394.2c7.8-1,12.2,1.4,15.4,8.3c1.9,4.1,0,9.2-4.9,13.6C403.3,404.5,401.4,400.5,390.3,394.2z"/>
	<path class="st2" d="M92.6,36.6c6.9-4.4,10.8-4.5,15.7-0.2c4.5,3.9,5.7,9.5,3.2,15.1C108.5,40.6,105.1,38,92.6,36.6z"/>
	<path class="st3" d="M314.2,45.7l-0.7,0.6c-3.6-2.8-6.5-6.1-7.9-10.5c-1.7-5.5,1.4-9.1,7.3-8.6C308.4,33.9,308.6,37.6,314.2,45.7z"
		/>
	<path class="st4" d="M389.3,362.4l0.8-0.9c0.6,1,0.6,2,0.5,4L389.3,362.4z"/>
	<path class="st5" d="M377.1,399.9c0.7-0.5,1.8,0.4,2.2-0.8c0.4,0.2,1,0.4,1.1,0.8c0.2,0.7-0.5,0.7-0.9,0.6
		C378.8,400.4,378,400.1,377.1,399.9z"/>
	<path class="st6" d="M111,62.3c-0.6-0.1-0.7-1.1-1.4-0.8c0-0.6,0-1.4,0.8-1.1S111.1,61.6,111,62.3z"/>
	<path class="st7" d="M101.3,247.7c-1.6-44.7,16.6-79,47-108.1c20.1-19.2,44.1-30.6,71-36c14.6-2.9,29.5-2.3,44.3-1.1
		c27.3,2.1,51,13.3,71.9,30.3c27.7,22.5,46.6,50.8,52.9,86.3c6.1,34.8,2.3,68.3-16.4,99.2c-10.4,17.2-24,32.2-40,44.3
		c-20.2,15.6-44.3,25.1-69.6,27.6c-37.2,3.7-71.5-3.9-101.6-26.9c-29.1-22.1-48.7-50.7-57.1-86.4
		C101.5,267.4,100.6,257.5,101.3,247.7z"/>
	<path class="st8" d="M411.6,262.4c0.1-2,0.2-3.4,0.3-4.9c0.1-1.1,0.2-2.3,2-1.8c1.4,0.4,2.1,1.2,1.7,2.7
		C415,260.1,413.9,261.3,411.6,262.4z"/>
	<path class="st9" d="M239.1,411.8c1.2,0,2.3,0,3.4,0c0.7,0,1.6-0.3,2,0.5c0.1,0.6-0.1,1.2-0.4,1.7c-0.4,0.8-1.4,1.1-2.2,0.7l0,0
		C240.5,414.1,239.3,413.5,239.1,411.8z"/>
	<path class="st10" d="M78.7,240v4.8C76.4,243.3,77.4,242,78.7,240z"/>
</g>
<g>
	<g class="st11">
		<path class="st12" d="M117.6,240.4c-6.5-5.6-10.5-13.2-10.5-21.8v-21.5h21v21.5c0,6.9,6.6,12.6,14.6,12.6c4,0,7.6-1.4,10.3-3.6
			c14.9-5.2,25.3-16.2,25.3-30.6v21.5c0,8.5-4,16.2-10.5,21.8c6.5,5.6,10.5,13.2,10.5,21.7v21.7h-21V262c0-6.9-6.6-12.5-14.6-12.5
			c-4,0-7.6,1.4-10.3,3.6c-1.4,0.5-2.9,1-4.3,1.5c-12.3,5.3-21,16.3-21,29.1V262C107.1,253.6,111.1,246,117.6,240.4z M110.5,283.7
			c0-11,7.2-20.5,17.5-25.5c0.3-0.2,0.7-0.4,1-0.5c-0.7,1.4-1,2.8-1,4.3v21.7H110.5z M156.4,223.1c0.7-1.4,1-2.8,1-4.5v-21.5h17.5
			c0,10.9-7.2,20.5-17.5,25.5C157.1,222.8,156.6,222.9,156.4,223.1z"/>
		<path class="st12" d="M335.7,197.2c3.3,0,6.3,0.4,9.3,1.1h0.1c-13.6,4.3-23.6,15.5-24,28.6c-0.1,0.2-0.1,0.6-0.1,1v55.9h-21v-55.9
			C300.1,211.1,316,197.2,335.7,197.2z M350.4,240.5v-12.6c0-6.9-6.6-12.5-14.6-12.5c-3.4,0-6.6,1-9,2.7c3.9-9.2,12.9-16,24-18.1
			c12.2,4.8,20.7,15.5,20.7,27.8v55.9h-21v-25.2h-25.4v-18.1H350.4z"/>
	</g>
</g>
<g>
	<g>
		<g>
			<path class="st13" d="M285.1,257.7c-5.6,12.6-18.2,21.4-32.7,21.4c-19.8,0-35.9-16.3-35.9-36.4s16.1-36.4,35.9-36.4
				c14.8,0,27.4,9,32.9,21.9c-6.2-19.2-24.1-33.1-45.4-33.1c-26.3,0-47.6,21.3-47.6,47.6s21.3,47.6,47.6,47.6
				c21.9,0,40.3-14.8,45.9-34.9L285.1,257.7z"/>
			<path class="st13" d="M285.6,228.9c-0.1-0.2-0.2-0.5-0.3-0.7c0.2,0.6,0.4,1.2,0.5,1.8L285.6,228.9z"/>
		</g>
	</g>
	<g>
		<g>
			<path class="st14" d="M285.1,257.7c-5.6,12.6-18.2,21.4-32.7,21.4c-19.8,0-35.9-16.3-35.9-36.4s16.1-36.4,35.9-36.4
				c14.8,0,27.4,9,32.9,21.9c-6.2-19.2-24.1-33.1-45.4-33.1c-26.3,0-47.6,21.3-47.6,47.6s21.3,47.6,47.6,47.6
				c21.9,0,40.3-14.8,45.9-34.9L285.1,257.7z"/>
			<path class="st14" d="M285.6,228.9c-0.1-0.2-0.2-0.5-0.3-0.7c0.2,0.6,0.4,1.2,0.5,1.8L285.6,228.9z"/>
		</g>
	</g>
</g>
<rect x="197.2" y="335" class="st15" width="11.8" height="11.2"/>
</svg>
