<?xml version="1.0" encoding="utf-8"?>
<svg xmlns="http://www.w3.org/2000/svg" height="48" width="48" viewBox="0 0 48 48">
  <g>
    <path id="path1" transform="rotate(0,24,24) translate(0,0) scale(1.5,1.5)  " fill="#17FF70" d="M10.23999,24.319946L28.160004,24.319946 28.160004,25.599976 10.23999,25.599976z M4.223999,21.375977C4.480011,21.375977 4.6080017,21.375977 4.7359924,21.504028 4.9920044,21.76001 5.1199951,22.144043 5.2479858,22.656006 5.3760071,23.42395 5.5039978,24.192017 5.6319885,25.088013L6.0159912,23.552002C6.2720032,22.911987,6.5280151,22.271973,6.9119873,21.504028L7.6799927,21.504028C7.6799927,21.631958 7.29599,22.144043 6.9119873,23.167969 6.6560059,23.552002 6.5280151,23.936035 6.5280151,24.192017 6.3999939,24.192017 6.3999939,24.319946 6.2720032,24.447998L5.7600098,25.728027 5.7600098,26.368042 5.7600098,26.880005C5.7600098,27.391968 5.7600098,27.647949 5.6319885,27.904053 5.6319885,28.031982 5.5039978,28.160034 5.5039978,28.287964 5.5039978,28.416016 5.3760071,28.416016 5.2479858,28.416016 5.1199951,28.287964 5.1199951,28.160034 4.9920044,28.160034 4.8640137,28.160034 4.8640137,27.904053 4.8640137,27.776001 4.8640137,27.52002 4.8640137,27.264038 4.9920044,26.880005 5.1199951,26.495972 5.2479858,26.112061 5.5039978,25.728027 5.2479858,24.063965 5.1199951,23.040039 4.8640137,22.656006 4.6080017,22.271973 4.480011,22.144043 4.223999,22.144043 4.0960083,22.144043 3.9679871,22.144043 3.8399963,22.271973 3.7120056,22.400024 3.7120056,22.527954 3.5840149,22.911987L3.4559937,22.911987 3.4559937,22.656006C3.4559937,22.144043 3.5840149,21.887939 3.7120056,21.631958 3.8399963,21.504028 4.0960083,21.375977 4.223999,21.375977z M10.23999,15.359985L28.160004,15.359985 28.160004,16.640015 10.23999,16.640015z M5.3760071,10.624023C4.9920044,10.624023 4.7359924,10.751953 4.480011,11.135986 4.223999,11.264038 4.223999,11.647949 4.223999,12.160034L4.223999,16.640015C4.6080017,16.895996 4.8640137,17.024048 5.1199951,17.151978 5.2479858,17.280029 5.5039978,17.280029 5.6319885,17.280029 6.0159912,17.280029 6.2720032,17.151978 6.5280151,16.895996 6.7839966,16.640015 6.9119873,16.128052 6.9119873,15.615967 6.9119873,15.232056 6.9119873,14.848022 6.7839966,14.592041 6.6560059,14.33606 6.5280151,13.952026 6.2720032,13.696045 6.0159912,13.823975 5.8880005,13.823975 5.6319885,13.823975 5.3760071,13.823975 5.2479858,13.823975 5.2479858,13.696045 5.2479858,13.567993 5.1199951,13.567993 5.1199951,13.439941 5.1199951,13.439941 5.1199951,13.312012 5.2479858,13.312012 5.3760071,13.312012 5.3760071,13.18396 5.5039978,13.18396 5.6319885,13.18396 5.8880005,13.18396 6.2720032,13.312012 6.2720032,12.800049 6.3999939,12.287964 6.3999939,11.904053 6.3999939,11.52002 6.2720032,11.135986 6.1440125,10.880005 6.0159912,10.624023 5.6319885,10.624023 5.3760071,10.624023z M5.3760071,10.23999C5.8880005,10.23999 6.3999939,10.368042 6.7839966,10.751953 7.1679993,11.135986 7.29599,11.391968 7.29599,11.904053 7.29599,12.160034 7.1679993,12.416016 7.0400085,12.671997 6.9119873,12.927979 6.6560059,13.18396 6.3999939,13.312012 7.29599,13.696045 7.6799927,14.463989 7.6799927,15.359985 7.6799927,15.744019 7.552002,16.128052 7.4240112,16.511963 7.29599,16.895996 7.0400085,17.151978 6.6560059,17.280029 6.2720032,17.407959 6.0159912,17.536011 5.6319885,17.536011 5.3760071,17.536011 5.2479858,17.536011 4.9920044,17.407959 4.7359924,17.280029 4.480011,17.151978 4.223999,17.024048L4.223999,17.920044C4.223999,18.432007,4.0960083,19.072021,3.9679871,19.712036L3.2000122,19.712036C3.3280029,19.328003 3.3280029,19.072021 3.3280029,18.81604 3.3280029,18.303955 3.4559937,18.047974 3.4559937,17.791992L3.4559937,12.671997C3.4559937,12.031982 3.4559937,11.647949 3.5840149,11.391968 3.7120056,11.135986 3.8399963,10.751953 4.223999,10.495972 4.6080017,10.23999 4.8640137,10.23999 5.3760071,10.23999z M10.23999,6.4000244L28.160004,6.4000244 28.160004,7.6800537 10.23999,7.6800537z M4.7359924,4.4799805C4.3519897,4.4799805 4.0960083,4.7359619 3.9679871,5.1199951 3.8399963,5.5040283 3.5840149,6.0159912 3.5840149,6.7840576 3.5840149,7.2960205 3.5840149,7.552002 3.7120056,7.9360352 3.8399963,8.3199463 3.9679871,8.447998 4.0960083,8.5760498 4.223999,8.7039795 4.480011,8.8320313 4.7359924,8.8320313 4.9920044,8.8320313 5.2479858,8.7039795 5.5039978,8.447998 5.7600098,8.0639648 6.0159912,7.4239502 6.2720032,6.4000244 6.1440125,5.631958 5.8880005,5.2480469 5.6319885,4.9919434 5.3760071,4.7359619 4.9920044,4.4799805 4.7359924,4.4799805z M4.6080017,4.223999C4.9920044,4.223999 5.3760071,4.3520508 5.6319885,4.6080322 5.8880005,4.8640137 6.2720032,5.1199951 6.3999939,5.7600098L6.9119873,4.3520508 7.6799927,4.3520508 7.0400085,6.5279541C7.0400085,6.6560059 6.9119873,6.9119873 6.7839966,7.1679688 6.9119873,7.6800537 7.0400085,7.9360352 7.0400085,8.0639648 7.1679993,8.1920166 7.29599,8.3199463 7.552002,8.3199463 7.6799927,8.3199463 7.8080139,8.3199463 7.9360046,8.1920166 8.0639954,8.0639648 8.0639954,7.9360352 8.1919861,7.6800537L8.447998,7.6800537C8.447998,8.1920166 8.3200073,8.447998 8.1919861,8.7039795 8.0639954,8.9599609 7.8080139,9.0880127 7.552002,9.0880127 7.4240112,9.0880127 7.1679993,8.9599609 7.0400085,8.8320313 6.9119873,8.7039795 6.7839966,8.3199463 6.6560059,7.8079834 6.5280151,8.0639648 6.2720032,8.3199463 6.1440125,8.447998 6.0159912,8.7039795 5.7600098,8.8320313 5.5039978,8.8320313 5.2479858,8.8320313 5.1199951,9.0880127 4.7359924,9.0880127 3.9679871,9.0880127 3.4559937,8.8320313 3.071991,8.3199463 2.6879883,7.8079834 2.5599976,7.2960205 2.5599976,6.6560059 2.5599976,5.8879395 2.8160095,5.3759766 3.2000122,4.8640137 3.5840149,4.3520508 4.0960083,4.223999 4.6080017,4.223999z M1.2799988,1.2800293L1.2799988,30.719971 30.720001,30.719971 30.720001,1.2800293z M0,0L32,0 32,32 0,32z" />
  </g>
</svg>

