<?xml version="1.0" encoding="utf-8"?>
<svg height="48" viewBox="0 0 48 48" width="48" xmlns="http://www.w3.org/2000/svg">
    <g>
        <path
            d="M10.972,22.256014L12.972001,22.256014 12.972001,23.357014 10.972,23.357014z M10.971954,14.003031L12.971954,14.003031 12.971954,20.606004 10.971954,20.606004z M12.049641,12.0018C11.852014,12.001425 11.655013,12.064924 11.430012,12.192925 9.9990042,13.009932 8.3079948,13.892939 6.4069843,14.422942 6.4189844,14.614944 6.4299846,14.803945 6.4429846,14.993946 6.6129856,17.477964 7.2199888,19.64998 8.3009949,21.633994 9.25,23.375007 10.501007,24.802018 12.023015,25.879026 13.283022,24.934019 14.363029,23.77301 15.238033,22.42 16.594041,20.324985 17.382045,17.955968 17.648046,15.175948 17.673047,14.922945 17.686047,14.668944 17.697047,14.415942L17.041043,14.21994C15.495035,13.750937 14.093027,12.993932 12.673019,12.193926 12.445518,12.066425 12.247267,12.002174 12.049641,12.0018z M12.04339,10.000035C12.580769,9.9994097 13.119022,10.149911 13.654025,10.450913 15.024032,11.222919 16.268039,11.894923 17.623046,12.305926L19.770059,12.945931 19.708058,14.21594C19.692059,14.596943 19.676058,14.983946 19.638058,15.367949 19.345057,18.429971 18.429051,21.168991 16.918043,23.506008 15.846037,25.16102 14.506029,26.569031 12.933021,27.691039 12.703019,27.85504 12.395018,28.003041 12.033016,28.003041 11.769014,28.003041 11.476012,27.92304 11.164011,27.715039 9.256,26.43803 7.7009914,24.714017 6.5449848,22.590002 5.3409781,20.378986 4.6359744,17.868967 4.4479733,15.131947 4.4259734,14.813945 4.4069734,14.492942 4.3869729,14.15894L4.3079724,12.852931 5.1499772,12.672929C7.1229882,12.251926 8.856998,11.35892 10.438006,10.455914 10.96951,10.152411 11.506013,10.00066 12.04339,10.000035z M7.0000002,3.4139996L3.3829885,7.0310116 7.0000002,7.0310116z M9.0000001,2L9.0000001,9.0310106 2,9.0310106 2,30 22,30 22,2z M7.5860002,0L22,0C23.103,0,24,0.89699936,24,2L24,30C24,31.103,23.103,31.999999,22,31.999999L2,31.999999C0.89700031,31.999999,0,31.103,0,30L0,7.5859995z"
            fill="#FC0000"
            id="path1"
            transform="rotate(0,24,24) translate(5.99999892711633,0) scale(1.50000008940697,1.50000008940697)  "/>
    </g>
</svg>

