<?xml version="1.0" encoding="utf-8"?>
<svg xmlns="http://www.w3.org/2000/svg" height="48" width="48" viewBox="0 0 48 48">
  <g>
    <path id="path1" transform="rotate(0,24,24) translate(0.000844001820325957,0) scale(1.50000008940697,1.50000008940697)  " fill="#00C2DA" d="M2,24L2,29.999999 8,29.999999 8,24z M26.001885,13.976986L26.001885,17.970978 28.664866,15.955992z M2,2L2,7.9999998 8,7.9999998 8,2z M0,0L10,0 10,3.9949932 14.985013,3.9949932 24.001873,14.551444 24.001873,9.9979789 31.998872,15.941985 24.001873,21.991979 24.001873,16.986907 15.330013,27.994 10,27.994 10,31.999999 0,31.999999 0,22 10,22 10,25.993999 14.359015,25.993999 22.413003,15.770997 14.063015,5.9949937 10,5.9949937 10,9.9999997 0,9.9999997z" />
  </g>
</svg>

