<?xml version="1.0" encoding="utf-8"?>
<svg height="48" viewBox="0 0 48 48" width="48" xmlns="http://www.w3.org/2000/svg">
    <g>
        <path
            d="M5.9999997,24.999999L18,24.999999C18.552999,24.999999 19,25.447999 19,25.999999 19,26.551999 18.552999,26.999999 18,26.999999L5.9999997,26.999999C5.4469999,26.999999 4.9999999,26.551999 4.9999998,25.999999 4.9999999,25.447999 5.4469999,24.999999 5.9999997,24.999999z M5.9999997,21L18,21C18.552999,21 19,21.448 19,22 19,22.552 18.552999,22.999999 18,22.999999L5.9999997,22.999999C5.4469999,22.999999 4.9999999,22.552 4.9999998,22 4.9999999,21.448 5.4469999,21 5.9999997,21z M5.9999997,17L18,17C18.552999,17 19,17.448 19,18 19,18.552 18.552999,19 18,19L5.9999997,19C5.4469999,19 4.9999999,18.552 4.9999998,18 4.9999999,17.448 5.4469999,17 5.9999997,17z M9.5989828,6.9359901L10.688948,8.0259888 8.5999599,10.114982 9.9219809,11.435999 11.864973,9.4929717 12.950971,10.577996 11.007979,12.522 12.365949,13.880981 14.591961,11.656001 15.676983,12.740994 12.113935,16.30399 6.1719829,10.362999z M17,3.4140005L17,7.0320046 20.618005,7.0320046z M2,2L2,29.999999 22,29.999999 22,9.0320108 15,9.0320108 15,2z M2,0L16.414,0 23.999999,7.5859997 23.999999,29.999999C23.999999,31.103,23.103,31.999999,22,31.999999L2,31.999999C0.89699984,31.999999,0,31.103,0,29.999999L0,2C0,0.89699984,0.89699984,0,2,0z"
            fill="#6964FF"
            id="path1"
            transform="rotate(0,24,24) translate(6.00000035762789,0) scale(1.50000008940697,1.50000008940697)  "/>
    </g>
</svg>

