<?xml version="1.0" encoding="utf-8"?>
<svg xmlns="http://www.w3.org/2000/svg" height="48" width="48" viewBox="0 0 48 48">
  <g>
    <path id="path1" transform="rotate(0,24,24) translate(5.61023622047244,0) scale(0.503937007874016,0.503937007874016)  " fill="#03C5FF" d="M57.75,53.4375L59.203125,54.328125 59.9121055603027,56.6337890625 61.0078086853027,59.33203125 62.4902305603027,62.4228515625 64.359375,65.90625 63.5507774353027,65.80078125 63.1875,65.765625 59.390625,65.4375 57.1640586853027,65.26171875 55.640625,65.203125 54.703125,65.25 62.53125,86.015625 72.984375,95.25 45.84375,95.25 44.953125,93.984375 69.84375,93.984375 61.40625,86.53125 53.0625,64.453125 56.71875,64.03125 62.34375,64.453125 61.78125,63.421875 59.2734336853027,58.16015625 57.75,53.4375z M33.75,46.3125L28.59375,59.90625 29.0625,60.46875 30.984375,62.625 32.7421875,64.78125 34.921875,67.875 35.390625,68.578125 40.171875,63.5625 33.75,46.3125z M31.640625,40.875L24.1875,60.5625 27.5039043426514,64.1953125 30.328125,67.78125 32.484375,70.78125 32.953125,71.390625 33.421875,70.875 34.078125,70.078125 34.59375,69.46875 31.04296875,64.65234375 26.953125,60.328125 32.953125,44.484375 31.640625,40.875z M23.71875,31.265625L45.328125,31.265625 40.453125,36.796875 48.140625,57.234375 50.015625,56.203125 43.078125,37.734375 48.046875,32.015625 49.265625,32.53125 44.53125,38.015625 51.09375,55.5 51.75,54.984375 53.296875,53.671875 54.4453086853027,52.7109375 55.078125,52.078125 56.6249961853027,57.140625 58.828125,61.640625 57.6562461853027,61.5703125 56.859375,61.546875 53.0039024353027,61.8984375 50.34375,62.953125 58.828125,85.96875 65.859375,91.40625 42.1875,91.40625 48.65625,85.96875 43.453125,72.28125 38.89453125,77.35546875 35.53125,82.171875 34.453125,81.890625 37.8984375,77.02734375 42.703125,71.625 43.078125,71.15625 42.1875,69.09375 37.08984375,74.109375 32.953125,79.875 32.109375,78.515625 29.3320293426514,74.35546875 25.875,69.65625 25.40625,69.09375 23.8271484375,72.9140625 22.69921875,76.359375 22.0224609375,79.4296875 21.796875,82.125 22.048828125,84.849609375 22.8046875,87.1171875 24.521484375,89.841796875 27.65625,93.9375 28.6875,95.25 3.375,95.25 2.43749976158142,93.984375 26.296875,93.984375 25.5,93 22.939453125,89.666015625 21.4453125,87.1640625 20.724609375,84.896484375 20.484375,82.265625 20.7275390625,79.58203125 21.45703125,76.3125 22.6728515625,72.45703125 24.375,68.015625 22.3125,65.859375 21.62109375,67.7109375 20.765625,70.265625 19.21875,75.046875 18.26953125,78.5625 17.953125,81.421875 18.17578125,83.82421875 18.84375,85.78125 20.2265625,87.83203125 22.59375,90.515625 23.4375,91.40625 0,91.40625 6.005859375,87.33984375 10.6171875,82.078125 12.5698232650757,78.75 14.5136709213257,74.625 16.44873046875,69.703125 18.375,63.984375 18.5625,63.328125 15.52734375,61.62890625 11.390625,60.75 13.6757802963257,56.82421875 15.375,52.734375 16.171875,53.484375 18.28125,55.453125 20.859375,57.5625 21.703125,55.5 21.140625,55.03125 18.984375,53.16796875 17.203125,51.703125 16.78125,51.375 17.53125,50.34375 22.3125,54.140625 28.6875,36.609375 23.71875,31.265625z" />
  </g>
</svg>

