<?xml version="1.0" encoding="utf-8"?>
<svg xmlns="http://www.w3.org/2000/svg" height="48" width="48" viewBox="0 0 48 48">
  <g>
    <path id="path1" transform="rotate(0,24,24) translate(1.6,10.9799997329712) scale(1.4,1.4)  " fill="#00C2DA" d="M7.5,12.40001L7.5,14.400012 21,14.400012 21,12.40001z M5.8000488,4.5000059L23,4.5000059C23.5,4.5000059,23.900024,4.9000003,23.900024,5.4000008L23.900024,17.700005C23.900024,18.200005,23.5,18.600001,23,18.600001L5.8000488,18.600001C5.3000488,18.600001,4.9000244,18.200005,4.9000244,17.700005L4.9000244,5.4000008C5,4.9000003,5.4000244,4.5000059,5.8000488,4.5000059z M29.100037,2.0999779L31.100037,2.0999779C31.600037,2.0999782,32,2.500003,32,3.0000038L32,12.099991C32,12.599992,31.600037,13.000016,31.100037,13.000016L29.100037,13.000016C28.700012,13.000016,28.400024,12.699998,28.300049,12.40001L26.800049,10.599989 25.400024,10.599989 25.400024,6.5999839C25.400024,5.5000069,24.5,4.6999876,24.5,4.6999876L26.800049,4.6999876 28.400024,2.7999911C28.400024,2.2999906,28.700012,2.0999782,29.100037,2.0999779z M1.8000488,0L1.9000244,0C2.7000122,-1.8014543E-07,3.4000244,0.50000048,3.6000366,1.1999831L3.7000122,1.1999831C3.9000244,1.1999831,4.1000366,1.0999768,4.3000488,1.099977L18.300049,1.099977C19.5,1.0999768,20.5,2.0000023,20.600037,3.1999854L6.9000244,3.1999854C6.9000244,3.1999857,4.3000488,3.299992,3.7000122,6.0999834L3.7000122,6.2999961 3.7000122,6.4000022C3.7000122,7.4000036,2.9000244,8.1999924,1.9000244,8.1999924L1.8000488,8.1999924C0.80004883,8.2999985,0,7.5000097,0,6.5000083L0,1.7999901C0,0.79998869,0.80004883,-1.8014543E-07,1.8000488,0z" />
  </g>
</svg>

