<?xml version="1.0" encoding="utf-8"?>
<svg xmlns="http://www.w3.org/2000/svg" height="48" width="48" viewBox="0 0 48 48">
  <g>
    <path id="path1" transform="rotate(0,24,24) translate(6.77174949645996,0) scale(1.5,1.5)  " fill="#17FF70" d="M15.94903,4.814936L17.855035,4.814936 17.353021,7.2219003 19.36004,7.2219003 16.95202,13.039821 16.95202,8.8268817 15.247003,8.8268817z M17.051995,3.7109512C14.244014,3.7109509 12.037044,5.9179176 12.037044,8.7268766 12.037044,11.535843 14.244014,13.741814 17.051995,13.741814 19.861016,13.741814 22.067984,11.535843 22.067984,8.7268766 22.067984,5.9179176 19.861016,3.7109509 17.051995,3.7109512z M17.051995,2.8089631C20.262017,2.8089631 22.971,5.4169248 22.971,8.7268766 22.971,11.936839 20.36303,14.644801 17.051995,14.644801 13.843013,14.644801 11.134029,12.036836 11.134029,8.7268766 11.235042,5.5169256 13.843013,2.8089631 17.051995,2.8089631z M9.4290131,0C9.4290131,0 10.231014,1.2039858 11.335018,3.008961 9.8300131,4.5139373 8.9269989,6.519914 8.9269989,8.7268766 8.9269989,13.240815 12.538997,16.851765 17.051995,16.851765 17.353021,16.851765 17.754998,16.851765 18.056023,16.751767 18.457024,18.155747 18.757989,19.45973 18.757989,20.56272 18.757989,26.882632 14.545039,31.998558 9.3290375,31.998558 4.2130111,32.098555 -3.007608E-08,26.982628 0,20.663716 -3.007608E-08,14.243806 9.4290131,0 9.4290131,0z" />
  </g>
</svg>

