<?xml version="1.0" encoding="utf-8"?>
<svg xmlns="http://www.w3.org/2000/svg" height="48" width="48" viewBox="0 0 48 48">
  <g>
    <path id="path1" transform="rotate(0,24,24) translate(9.94488188976378,0) scale(0.503937007874016,0.503937007874016)  " fill="#03C5FF" d="M45.84375,37.359375L50.1914024353027,41.1884803771973 53.2968711853027,46.4414100646973 55.1601524353027,53.1181678771973 55.78125,61.21875 55.1660118103027,69.8671875 53.3203086853027,77.296875 50.2441368103027,83.5078125 45.9375,88.5 41.56640625,91.453125 36,93.5625 29.23828125,94.828125 21.28125,95.25 4.82812452316284,95.25 4.12499952316284,93.984375 21.28125,93.984375 27.228515625,93.7646484375 32.4140625,93.10546875 36.837890625,92.0068359375 40.5,90.46875 43.806884765625,88.374755859375 46.6728477478027,85.8427734375 49.0978965759277,82.872802734375 51.0820274353027,79.46484375 52.6252403259277,75.618896484375 53.7275352478027,71.3349609375 54.388916015625,66.613037109375 54.609375,61.453125 54.2138633728027,54.7207069396973 53.0273399353027,48.9140663146973 51.0498008728027,44.0332069396973 48.28125,40.078125 46.40625,38.015625 45.84375,37.359375z M17.53125,35.203125L17.53125,87.796875 20.109375,87.796875 20.109375,38.296875 24.5625,37.921875 28.0019512176514,38.1152381896973 30.6328125,38.6953125 32.865234375,39.7910194396973 35.109375,41.53125 29.9648418426514,39.7734413146973 24.46875,39.1875 21.28125,39.375 21.28125,87.796875 25.8984355926514,87.580078125 29.25,86.9296875 31.8984375,85.658203125 34.40625,83.578125 37.3798828125,79.546875 39.50390625,74.34375 40.7783203125,67.96875 41.203125,60.421875 40.7431640625,53.1064491271973 39.36328125,47.0507850646973 37.0634765625,42.2548866271973 33.84375,38.71875 31.2919902801514,37.1806678771973 28.0898418426514,36.0820350646973 24.2373027801514,35.4228553771973 19.734375,35.203125 17.53125,35.203125z M3.32812452316284,31.265625L21.796875,31.265625 28.130859375,31.5908222198486 33.5859375,32.5664100646973 38.162109375,34.1923866271973 41.859375,36.46875 46.1044883728027,40.8574256896973 49.1367149353027,46.3359413146973 50.9560508728027,52.9043006896973 51.5625,60.5625 51.0322227478027,68.4814453125 49.4414024353027,75.22265625 46.7900352478027,80.7861328125 43.078125,85.171875 39.005859375,88.08984375 34.4765625,90 31.9028301239014,90.615234375 28.9394512176514,91.0546875 25.5864238739014,91.318359375 21.84375,91.40625 1.92187464237213,91.40625 8.34375,86.484375 8.34375,36.65625 3.32812452316284,31.265625z" />
  </g>
</svg>

