<?xml version="1.0" encoding="utf-8"?>
<svg xmlns="http://www.w3.org/2000/svg" height="48" width="48" viewBox="0 0 48 48">
  <g>
    <path id="path1" transform="rotate(0,24,24) translate(4.93499994277954,0) scale(1.5,1.5)  " fill="#0AFF9A" d="M18.768996,21.942017L18.768996,23.935974 14.788005,23.935974 14.788005,27.224976 18.768996,27.224976 18.768996,29.375 23.057999,25.658997z M18.861007,18.880981C22.483018,18.880981 25.420001,21.817017 25.420001,25.440002 25.420001,29.062988 22.483018,32 18.861007,32 15.237987,32 12.301004,29.062988 12.301004,25.440002 12.301004,21.817017 15.237987,18.880981 18.861007,18.880981z M2.954989,16.838989L2.954989,18.237976 12.772989,18.237976 12.772989,16.838989z M2.954989,10.776978L2.954989,12.175964 17.022992,12.175964 17.022992,10.776978z M14.611003,0.98999023L19.035994,5.697998 15.543987,5.697998C15.027996,5.697998,14.611003,5.2799683,14.611003,4.7659912z M2.020998,0L13.263986,0 13.263986,5.0249634C13.263986,6.1409912,14.168986,7.0460205,15.284008,7.0460205L20.000014,7.0460205 20.000014,17.159973C19.625991,17.109009 19.248,17.073975 18.861007,17.073975 14.246989,17.073975 10.495003,20.826965 10.495003,25.440002 10.495003,26.518982 10.707985,27.547974 11.081002,28.497009L2.020998,28.497009C0.9049996,28.497009,1.919434E-07,27.59198,0,26.476013L0,2.0200195C1.919434E-07,0.9039917,0.9049996,0,2.020998,0z" />
  </g>
</svg>

