<?xml version="1.0" encoding="utf-8"?>
<svg height="48" viewBox="0 0 48 48" width="48" xmlns="http://www.w3.org/2000/svg">
    <g>
        <path
            d="M13.368012,30.664002L20.779999,30.664002 20.779999,31.422997 13.209015,31.422997C13.318024,31.224 13.380005,31.013001 13.380005,30.793 13.380005,30.749001 13.374024,30.707001 13.368012,30.664002z M0,30.664002L7.7880251,30.664002C7.7850039,30.707001 7.7790224,30.749001 7.7790224,30.793 7.7790224,31.013001 7.8370058,31.224 7.9400027,31.422997L0,31.422997z M8.9790041,2.1869997L8.8320009,6.957C8.8320009,6.957,8.6410219,10.110999,5.1660158,9.7300021L2.1870117,9.6490008 2.1870117,23.200997C2.1870119,23.502999,2.432007,23.747998,2.7340088,23.747998L18.046021,23.747998C18.346009,23.747998,18.592011,23.502999,18.592011,23.200997L18.592011,2.7340006C18.592011,2.4330022,18.346009,2.187,18.046021,2.1869997z M8.8359987,0L18.046021,0C19.556,0,20.779999,1.2240027,20.779999,2.7340006L20.779999,23.200997C20.779999,24.710999,19.556,25.934998,18.046021,25.934998L11.434998,25.934998 11.434998,29.278001C11.834015,29.543999 12.097016,29.998002 12.097016,30.514001 12.097016,31.335 11.432007,32.000001 10.611023,32.000001 9.7900088,32.000001 9.1250002,31.335 9.1250002,30.514001 9.1250002,29.998002 9.3880007,29.543999 9.787018,29.278001L9.787018,25.934998 2.7340088,25.934998C1.2239992,25.934998,2.1294181E-07,24.710999,0,23.200997L0,9.3220012 1.0830078,8.1799991 1.0840149,8.1490008 6.7580263,2.1869997 6.7420046,2.1869997 5.2250063,3.7870023 6.8150027,2.1039996 6.8370058,2.1039996 6.8870241,2.051002 6.8919985,2.051002z"
            fill="#EFFFE2" id="path1"
            transform="rotate(0,24,24) translate(8.41500091552734,0) scale(1.5,1.5)  "/>
    </g>
</svg>

