<?xml version="1.0" encoding="utf-8"?>
<svg xmlns="http://www.w3.org/2000/svg" height="48" width="48" viewBox="0 0 48 48">
  <g>
    <path id="path1" transform="rotate(0,24,24) translate(0,5.72204453419545E-06) scale(1.49999964237222,1.49999964237222)  " fill="#17FF70" d="M1.0000073,30L31.000007,30C31.552986,30 32.000007,30.447998 32.000007,31 32.000007,31.552002 31.552986,32 31.000007,32L1.0000073,32C0.44702871,32 7.2265625E-06,31.552002 7.152559E-06,31 7.2265625E-06,30.447998 0.44702871,30 1.0000073,30z M1.0000003,25L31,25C31.552999,25 32,25.447999 32,26 32,26.552 31.552999,27 31,27L1.0000003,27C0.44700001,27 0,26.552 0,26 0,25.447999 0.44700001,25 1.0000003,25z M1.0000003,20L31,20C31.552999,20 32,20.448 32,21 32,21.551999 31.552999,22 31,22L1.0000003,22C0.44700001,22 0,21.551999 0,21 0,20.448 0.44700001,20 1.0000003,20z M1.0000003,15L31,15C31.552999,15 32,15.448 32,16 32,16.551999 31.552999,17 31,17L1.0000003,17C0.44700001,17 0,16.551999 0,16 0,15.448 0.44700001,15 1.0000003,15z M1.0000003,10L31,10C31.552999,10 32,10.448 32,11 32,11.552 31.552999,12 31,12L1.0000003,12C0.44700001,12 0,11.552 0,11 0,10.448 0.44700001,10 1.0000003,10z M1.0000003,5L31,5C31.552999,5 32,5.448 32,6 32,6.552 31.552999,7 31,7L1.0000003,7C0.44700001,7 0,6.552 0,6 0,5.448 0.44700001,5 1.0000003,5z M1.0000003,0L31,0C31.552999,0 32,0.44799995 32,1 32,1.552 31.552999,2 31,2L1.0000003,2C0.44700001,2 0,1.552 0,1 0,0.44799995 0.44700001,0 1.0000003,0z" />
  </g>
</svg>

