<?xml version="1.0" encoding="utf-8"?>
<svg xmlns="http://www.w3.org/2000/svg" height="48" width="48" viewBox="0 0 48 48">
  <g>
    <path id="path1" transform="rotate(0,24,24) translate(0,0) scale(1.5,1.5)  " fill="#00C2DA" d="M6.032011,24C7.1370111,24 8.032011,24.895 8.032011,26 8.032011,27.105 7.1370111,28 6.032011,28 4.927011,28 4.032011,27.105 4.032011,26 4.032011,24.895 4.927011,24 6.032011,24z M2,22L2,30 30,30 30,22z M6.032011,14C7.1370111,14 8.032011,14.895 8.032011,16 8.032011,17.105 7.1370111,18 6.032011,18 4.927011,18 4.032011,17.105 4.032011,16 4.032011,14.895 4.927011,14 6.032011,14z M2,12L2,20 30,20 30,12z M6.032011,3.9689889C7.1370111,3.9689889 8.032011,4.8639889 8.032011,5.9689889 8.032011,7.0739889 7.1370111,7.9689889 6.032011,7.9689889 4.927011,7.9689889 4.032011,7.0739889 4.032011,5.9689889 4.032011,4.8639889 4.927011,3.9689889 6.032011,3.9689889z M2,2L2,10 30,10 30,2z M1,0L31,0C31.552002,0,32,0.44799805,32,1L32,30 32,31C32,31.552002,31.552002,32,31,32L30,32 1,32C0.44799805,32,0,31.552002,0,31L0,1C0,0.44799805,0.44799805,0,1,0z" />
  </g>
</svg>

