<?xml version="1.0" encoding="utf-8"?>
<svg xmlns="http://www.w3.org/2000/svg" height="48" width="48" viewBox="0 0 48 48">
  <g>
    <path id="path1" transform="rotate(0,24,24) translate(0,0.75) scale(1.5,1.5)  " fill="#00C2DA" d="M19,19L19,26 30,26 30,19z M6.950377,16.000011C7.2062521,16.000011,7.4620018,16.097757,7.657002,16.293249L11.900002,20.53507 10.486002,21.949011 7.907999,19.371845 7.907999,25.071009 17,25.071009 17,18C17,17.447001,17.448,17,18,17L31,17C31.552,17,32,17.447001,32,18L32,27C32,27.553,31.552,28,31,28L24.563881,28 27.563,31 20.688,31 23.68799,28 18,28C17.4825,28,17.056406,27.607128,17.005165,27.102362L17.003584,27.071011 6.908,27.071011C6.3559999,27.071011,5.9080005,26.62401,5.9080005,26.071011L5.9080005,19.456118 3.4150028,21.949011 2.0010033,20.53507 6.2430024,16.293249C6.4385023,16.097757,6.6945024,16.000011,6.950377,16.000011z M2,2L2,9 13,9 13,2z M1,0L14,0C14.552002,4.2518788E-09,15,0.44699097,15,1L15,4.0000052 25.041996,4.0000052C25.593996,4.0000052,26.041996,4.4480043,26.041996,5.0000033L26.041996,11.615005 28.536003,9.1209927 29.950003,10.534997 25.707001,14.77801C25.52,14.966011 25.264999,15.071011 25,15.071011 24.735001,15.071011 24.48,14.966011 24.292999,14.77801L20.049997,10.534997 21.463997,9.1209927 24.041998,11.698999 24.041998,6.0000014 15,6.0000014 15,10C15,10.553009,14.552002,11,14,11L7.5948672,11 10.593999,14 3.6569958,14 6.6569924,11 1,11C0.44799805,11,0,10.553009,0,10L0,1C0,0.44699097,0.44799805,4.2518788E-09,1,0z" />
  </g>
</svg>

