<?xml version="1.0" encoding="utf-8"?>
<svg xmlns="http://www.w3.org/2000/svg" height="48" width="48" viewBox="0 0 48 48">
  <g>
    <path id="path1" transform="rotate(0,24,24) translate(0,9) scale(1.5,1.5)  " fill="#00C2DA" d="M20.998972,11.999015L21.998972,11.999015 21.998972,14.000015 20.998972,14.000015z M24,11.999007L25,11.999007 25,14 24,14z M10,11.999007L11,11.999007 11,14 10,14z M7,11.999007L8,11.999007 8,14 7,14z M21.010983,6.9999881L21.011983,9.9969883 18.999983,9.9969883 18.999983,14.999988 26.999983,14.999988 26.999983,10.005988 24.995983,10.005988 24.996983,6.9999881z M7.0109825,6.9999881L7.0119829,9.9969883 4.9999828,9.9969883 4.9999828,14.999988 12.999983,14.999988 12.999983,10.005988 10.995983,10.005988 10.996983,6.9999881z M20.010983,5.9999881L25.996983,5.9999881 25.995983,9.0059881 27.999983,9.0059881 27.999983,15.999988 17.999983,15.999988 17.999983,8.9969883 20.011983,8.9969883z M6.0109825,5.9999881L11.996983,5.9999881 11.995983,9.0059881 13.999983,9.0059881 13.999983,15.999988 3.9999828,15.999988 3.9999828,8.9969883 6.0119829,8.9969883z M1,1L1,19 31,19 31,1z M0,0L32,0 32,20 0,20z" />
  </g>
</svg>

