<?xml version="1.0" encoding="utf-8"?>
<svg height="48" viewBox="0 0 48 48" width="48" xmlns="http://www.w3.org/2000/svg">
    <g>
        <path
            d="M12.001958,19.000023C12.553958,19.000023,13.001958,19.448023,13.001958,20.000023L13.001958,23.000023C13.001958,23.552023 12.553958,24.000023 12.001958,24.000023 11.449958,24.000023 11.001958,23.552023 11.001958,23.000023L11.001958,20.000023C11.001958,19.448023,11.449958,19.000023,12.001958,19.000023z M7.0029998,18.000023L7.0029998,25.000023 17.003,25.000023 17.003,18.000023z M12.001047,12.000016C10.347047,12.000016 9.0010467,13.363026 9.0010469,15.039038 9.0010467,15.34804 9.0460467,15.649168 9.1347809,15.938623L9.1552877,16.000023 14.847595,16.000023 14.874484,15.917107C14.958859,15.633418 15.001047,15.33904 15.001047,15.039038 15.001047,13.363026 13.656046,12.000016 12.001047,12.000016z M12.001047,10.000001C14.758047,10.000001 17.001047,12.260018 17.001047,15.039038 17.001047,15.28654 16.983469,15.531651 16.948471,15.773422L16.910049,16.000023 19.003,16.000023 19.003,27.000023 5.0029998,27.000023 5.0029998,16.000023 7.092658,16.000023 7.0565758,15.793479C7.0196092,15.545479 7.0010467,15.293665 7.0010468,15.039038 7.0010467,12.260018 9.2450466,10.000001 12.001047,10.000001z M6.9999996,3.4140015L3.382987,7.0310135 6.9999996,7.0310135z M8.9999998,2.000001L8.9999998,9.0310121 2,9.0310121 2,30.000001 22,30.000001 22,2.000001z M7.5859995,0L22,0C23.103,0,24,0.89700127,24,2.000001L24,30.000001C24,31.103001,23.103,32.000001,22,32.000001L2,32.000001C0.89699984,32.000001,0,31.103001,0,30.000001L0,7.5860004z"
            fill="#0AFF9A" id="path1"
            transform="rotate(0,24,24) translate(6,0) scale(1.5,1.5)  "/>
    </g>
</svg>

