<svg xmlns="http://www.w3.org/2000/svg" viewBox="0 0 1128 552">
    <defs>
        <svg id="contabilidad" x="0" y="0" viewBox="0 0 24 24">
            <g>
                <path transform="rotate(0,12,12) translate(0.382126092910767,0) scale(0.75,0.75)" fill="#FFFFFF"
                      d="M4.0500023,22.614998L4.0500023,25.118 7.3729998,25.118 7.3729998,22.614998z M22.759,17.995998L22.759,19.301998C21.289998,19.59 20.436994,20.538998 20.436994,21.747997 20.436994,23.080997 21.440992,23.768997 22.910993,24.263 23.927991,24.606998 24.367994,24.937 24.367994,25.458 24.367994,26.007999 23.831998,26.310997 23.048993,26.310997 22.154996,26.310997 21.344999,26.022999 20.767995,25.706997L20.354993,27.313999C20.876996,27.615997,21.770993,27.863998,22.691999,27.904999L22.691999,29.209999 24.037992,29.209999 24.037992,27.808998C25.619001,27.534 26.483991,26.488998 26.483991,25.266998 26.483991,24.029999 25.824002,23.273998 24.188993,22.696999 23.020002,22.257 22.539991,21.968998 22.539991,21.514999 22.539991,21.128998 22.828992,20.744999 23.72099,20.744999 24.710996,20.744999 25.341993,21.060997 25.701001,21.210999L26.097989,19.659C25.645993,19.439999,25.02699,19.246998,24.106992,19.205997L24.106992,17.995998z M23.419004,16.041C27.594999,16.041 30.980998,19.426998 30.980998,23.603001 30.980998,27.778999 27.594999,31.164997 23.419004,31.164997 19.241994,31.164997 15.857001,27.778999 15.857001,23.603001 15.857001,19.426998 19.241994,16.041 23.419004,16.041z M4.0500023,15.784L4.0500023,18.286999 7.3729998,18.286999 7.3729998,15.784z M4.0500023,9.185997L4.0500023,11.688999 7.3729998,11.688999 7.3729998,9.185997z M9.2819969,9.1559982L9.2819969,11.657997 19.368993,11.657997 19.368993,9.1559982z M17.849996,0.096000671L23.419004,7.8219986 16.392995,3.4899979z M0,0L16.367994,0 14.411001,4.4580002 23.341993,9.4899979 23.341993,14.792999C21.910993,14.806,20.562993,15.162998,19.37,15.782997L19.37,15.753998 9.2819969,15.753998 9.2819969,18.257 16.428998,18.257C15.484999,19.487,14.856001,20.968998,14.668997,22.585999L9.2819969,22.585999 9.2819969,25.089001 14.740996,25.089001C15.298994,28.354,17.650998,31.011997,20.748998,32L0,32z"/>
            </g>
        </svg>

        <svg id="book-info" x="48" y="0" viewBox="0 0 24 24">
            <g>
                <path transform="rotate(0,12,12) translate(0,1.50041450384355) scale(0.750023783007417,0.750023783007417)" fill="#FFFFFF"
                      d="M15.998985,16.998006L16.998986,16.998006 16.998986,18.998006 15.998985,18.998006z M15.998985,9.9980072L16.998986,9.9980072 16.998986,14.998007 15.998985,14.998007z M16.498986,7.8620066C12.914985,7.8620066 9.9989846,10.839006 9.9989846,14.498005 9.9989846,18.157005 12.914985,21.134004 16.498986,21.134004 20.082985,21.134004 22.998986,18.157005 22.998986,14.498005 22.998986,10.839006 20.082985,7.8620066 16.498986,7.8620066z M16.498986,6.8620071C20.634985,6.8620071 23.998986,10.288006 23.998986,14.498005 23.998986,18.709005 20.634985,22.134004 16.498986,22.134004 12.362985,22.134004 8.9989846,18.709005 8.9989846,14.498005 8.9989846,10.288006 12.362985,6.8620071 16.498986,6.8620071z M23.63286,1.9887742C21.475235,1.9910243,19.272986,2.5342793,16.998986,3.6187889L16.998986,4.9978012 14.998985,4.9978012 14.998985,3.6087052 14.676528,3.451811C10.420894,1.4482241,6.2615564,1.5034732,1.9949957,3.6109762L2.0000015,25.426C6.1964944,23.630496,10.44966,23.583686,14.660995,25.278861L14.998985,25.419956 14.998985,23.997972 16.998986,23.997972 16.998986,25.404983C21.316984,23.533967,25.682986,23.531967,29.998986,25.404983L29.998986,3.6047885C27.903485,2.525279,25.790486,1.9865243,23.63286,1.9887742z M8.5664504,0.00015260974C11.042808,0.01128074,13.519198,0.63175403,15.97922,1.8610117L16.00877,1.8762721 16.038939,1.8612778C21.160038,-0.60669429 26.163361,-0.62049914 30.917984,1.8207727 31.574986,2.1577758 31.998986,2.858782 31.998986,3.6047885L31.998986,25.412984C31.998986,26.08599 31.662985,26.707996 31.100985,27.077999 30.534985,27.449003 29.825985,27.509002 29.203985,27.240001 24.923985,25.381984 20.758986,25.591985 16.469984,27.880006 16.321986,27.959007 16.160984,27.998006 15.998985,27.998006 15.865485,27.998006 15.731984,27.971006 15.606501,27.917428L15.537815,27.882432 15.536995,27.884002C11.237006,25.637998 7.060993,25.435003 2.7709973,27.263 2.1559918,27.526 1.4539957,27.461006 0.89599678,27.092002 0.33499188,26.721998 2.7295755E-07,26.098997 0,25.426L0,3.615981C2.7295755E-07,2.8559782 0.43499804,2.1499764 1.1100012,1.8169758 3.4996863,0.63619482 5.9049747,0.031096794 8.3108275,0.0011677638 8.3960345,0.00010792057 8.4812425,-0.00023060094 8.5664504,0.00015260974z"/>
            </g>
        </svg>
    </defs>
</svg>
